<svg xmlns="http://www.w3.org/2000/svg" xmlns:xlink="http://www.w3.org/1999/xlink" width="120.151" height="133.379" viewBox="0 0 120.151 133.379">
  <defs>
    <clipPath id="clip-path">
      <rect id="Rectangle_116" data-name="Rectangle 116" width="120.151" height="133.379" fill="#fff"/>
    </clipPath>
  </defs>
  <g id="Group_336" data-name="Group 336" clip-path="url(#clip-path)">
    <path id="Path_447" data-name="Path 447" d="M36.381,112.666a2.829,2.829,0,0,1-1-.184,3.065,3.065,0,0,1-1.749-3.884l12.25-34.851a2.943,2.943,0,0,1,2.75-2,2.831,2.831,0,0,1,1,.184A2.948,2.948,0,0,1,51.283,73.5a3.111,3.111,0,0,1,.1,2.318l-12.25,34.851a2.942,2.942,0,0,1-2.75,2" transform="translate(-11.657 -25.001)" fill="#fff"/>
    <path id="Path_448" data-name="Path 448" d="M69.021,75.96a3.114,3.114,0,0,1-1-.165,2.841,2.841,0,0,1-1.651-1.407,2.529,2.529,0,0,1-.1-2.081l27.6-70.515A2.935,2.935,0,0,1,96.622,0a3.113,3.113,0,0,1,1,.165,2.837,2.837,0,0,1,1.652,1.407,2.532,2.532,0,0,1,.1,2.081l-27.6,70.515a2.933,2.933,0,0,1-2.75,1.792" transform="translate(-23.029)" fill="#fff"/>
    <path id="Path_449" data-name="Path 449" d="M3.259,86.156a2.933,2.933,0,0,1-2.75-3.937l6.356-17.5a2.918,2.918,0,0,1,3.751-1.753,2.935,2.935,0,0,1,1.749,3.76l-6.356,17.5a2.935,2.935,0,0,1-2.75,1.931" transform="translate(-0.116 -21.875)" fill="#fff"/>
    <path id="Path_450" data-name="Path 450" d="M158.822,122.029a2.94,2.94,0,0,1-2.75-3.947l6.356-17.542a2.937,2.937,0,0,1,2.751-1.936,2.931,2.931,0,0,1,2.652,1.7,2.934,2.934,0,0,1,.1,2.248l-6.356,17.544a2.937,2.937,0,0,1-2.75,1.935" transform="translate(-54.318 -34.357)" fill="#fff"/>
    <path id="Path_451" data-name="Path 451" d="M33.258,65.678a2.935,2.935,0,1,0,2.935-2.935,2.935,2.935,0,0,0-2.935,2.935" transform="translate(-11.588 -21.862)" fill="#fff"/>
    <path id="Path_452" data-name="Path 452" d="M33.258,83.634A2.935,2.935,0,1,0,36.193,80.7a2.935,2.935,0,0,0-2.935,2.935" transform="translate(-11.588 -28.118)" fill="#fff"/>
    <path id="Path_453" data-name="Path 453" d="M52.529,128.47a2.935,2.935,0,1,0,2.935-2.935,2.935,2.935,0,0,0-2.935,2.935" transform="translate(-18.303 -43.74)" fill="#fff"/>
    <path id="Path_454" data-name="Path 454" d="M52.529,110.539a2.935,2.935,0,1,0,2.935-2.935,2.935,2.935,0,0,0-2.935,2.935" transform="translate(-18.303 -37.492)" fill="#fff"/>
    <path id="Path_455" data-name="Path 455" d="M64.176,100.957a2.933,2.933,0,0,1-2.75-1.853L52.5,75.522a2.7,2.7,0,0,1,.1-2.153,2.869,2.869,0,0,1,1.651-1.456,3.019,3.019,0,0,1,1-.171A2.932,2.932,0,0,1,58,73.6l8.923,23.582a2.7,2.7,0,0,1-.1,2.153,2.869,2.869,0,0,1-1.651,1.456A3.017,3.017,0,0,1,64.176,100.957Z" transform="translate(-18.232 -24.997)" fill="#fff"/>
    <path id="Path_456" data-name="Path 456" d="M28.225,109.517a2.934,2.934,0,0,1-2.75-1.893L10.311,66.685A2.865,2.865,0,0,1,12.059,63a2.946,2.946,0,0,1,3.751,1.719l15.164,40.939a2.866,2.866,0,0,1-1.749,3.687A2.971,2.971,0,0,1,28.225,109.517Z" transform="translate(-3.531 -21.89)" fill="#fff"/>
    <path id="Path_457" data-name="Path 457" d="M142.255,87.683a2.933,2.933,0,0,1-2.75-1.86l-30.9-82A2.8,2.8,0,0,1,110.356.2a3,3,0,0,1,1-.171,2.932,2.932,0,0,1,2.75,1.861l30.9,82a2.722,2.722,0,0,1-.1,2.162,2.874,2.874,0,0,1-1.652,1.462A3.017,3.017,0,0,1,142.255,87.683Z" transform="translate(-37.781 -0.011)" fill="#fff"/>
    <path id="Path_458" data-name="Path 458" d="M174.947,122.029a2.936,2.936,0,0,1-2.75-1.935l-6.356-17.544a2.946,2.946,0,0,1,1.749-3.767,2.9,2.9,0,0,1,1-.179,2.937,2.937,0,0,1,2.75,1.936l6.356,17.542a2.948,2.948,0,0,1-1.749,3.769,2.911,2.911,0,0,1-1,.177" transform="translate(-57.722 -34.357)" fill="#fff"/>
    <path id="Path_459" data-name="Path 459" d="M2.834,169.7a4.05,4.05,0,0,1-.855-.108,2.819,2.819,0,0,1-.924-.391,2.392,2.392,0,0,1-.747-.8A2.583,2.583,0,0,1,0,167.066a2.969,2.969,0,0,1,.292-1.387,2.708,2.708,0,0,1,.755-.912,2.95,2.95,0,0,1,1.024-.5,4.257,4.257,0,0,1,1.117-.153H5.636v4.4a1.567,1.567,0,0,0,.2.912c.133.179.431.267.893.267H7.1a.548.548,0,0,1,.616.624.728.728,0,0,1-.146.529.658.658,0,0,1-.47.141H6.576a3.934,3.934,0,0,1-.762-.07,1.87,1.87,0,0,1-.647-.249,1.648,1.648,0,0,1-.485-.475,1.76,1.76,0,0,1-.262-.761,4.556,4.556,0,0,1-.762.2,4.6,4.6,0,0,1-.824.078m-1.6-2.75a1.391,1.391,0,0,0,.409,1.043,1.807,1.807,0,0,0,1.3.4,3.845,3.845,0,0,0,.731-.077,3.869,3.869,0,0,0,.7-.2v-2.727H3.019a2.106,2.106,0,0,0-1.263.375,1.36,1.36,0,0,0-.524,1.187m.339-5.658a.815.815,0,0,1,.816-.817.816.816,0,0,1,0,1.633.815.815,0,0,1-.816-.816m2,0a.817.817,0,0,1,1.394-.578.817.817,0,0,1-1.156,1.155.784.784,0,0,1-.238-.577" transform="translate(0 -55.914)" fill="#fff"/>
    <path id="Path_460" data-name="Path 460" d="M10.567,175.912a.544.544,0,0,1-.616-.616.721.721,0,0,1,.146-.524.67.67,0,0,1,.47-.138h2.279a.544.544,0,0,1,.616.616.719.719,0,0,1-.146.523.667.667,0,0,1-.47.139Z" transform="translate(-3.467 -60.848)" fill="#fff"/>
    <path id="Path_461" data-name="Path 461" d="M14.065,175.912a.544.544,0,0,1-.616-.616.721.721,0,0,1,.146-.524.67.67,0,0,1,.47-.138h2.279a.544.544,0,0,1,.616.616.719.719,0,0,1-.146.523.667.667,0,0,1-.47.139Z" transform="translate(-4.686 -60.848)" fill="#fff"/>
    <path id="Path_462" data-name="Path 462" d="M17.563,175.912a.544.544,0,0,1-.616-.616.721.721,0,0,1,.146-.524.67.67,0,0,1,.47-.138h2.279a.544.544,0,0,1,.616.616.719.719,0,0,1-.146.523.667.667,0,0,1-.47.139Z" transform="translate(-5.905 -60.848)" fill="#fff"/>
    <path id="Path_463" data-name="Path 463" d="M21.061,175.912a.544.544,0,0,1-.616-.616.721.721,0,0,1,.146-.524.67.67,0,0,1,.47-.138H23.34a.544.544,0,0,1,.616.616.719.719,0,0,1-.146.523.667.667,0,0,1-.47.139Z" transform="translate(-7.124 -60.848)" fill="#fff"/>
    <path id="Path_464" data-name="Path 464" d="M24.558,173.425a.544.544,0,0,1-.616-.616.719.719,0,0,1,.146-.523.667.667,0,0,1,.47-.139H25.59a5.433,5.433,0,0,0,.631-.031,1,1,0,0,0,.439-.147.678.678,0,0,0,.262-.339,1.772,1.772,0,0,0,.084-.608V167.5h1.263v2.957a4.185,4.185,0,0,0,.054.7,1.271,1.271,0,0,0,.208.532,1.044,1.044,0,0,0,.416.338,1.548,1.548,0,0,0,.663.124.545.545,0,0,1,.616.616.715.715,0,0,1-.147.523.665.665,0,0,1-.469.139,1.539,1.539,0,0,1-.97-.285,1.352,1.352,0,0,1-.493-.715,1.38,1.38,0,0,1-.87.816,4.947,4.947,0,0,1-1.455.184Zm1.217,2.326a.815.815,0,1,1,.238.577.785.785,0,0,1-.238-.577m2,0a.815.815,0,1,1,.238.577.787.787,0,0,1-.238-.577" transform="translate(-8.342 -58.361)" fill="#fff"/>
    <path id="Path_465" data-name="Path 465" d="M32.311,170.715a.544.544,0,0,1-.616-.616.721.721,0,0,1,.146-.524.67.67,0,0,1,.47-.138h2.4v-9.718h1.263v11Z" transform="translate(-11.043 -55.651)" fill="#fff"/>
    <path id="Path_466" data-name="Path 466" d="M44.793,170.053a.718.718,0,0,1-.146.523.668.668,0,0,1-.47.139h-.4a3.762,3.762,0,0,1-.9-.1,1.558,1.558,0,0,1-1.139-1,2.788,2.788,0,0,1-.162-1.024v-8.87h1.263v8.532a1.585,1.585,0,0,0,.2.917c.134.179.432.269.893.269h.247a.544.544,0,0,1,.616.616" transform="translate(-14.486 -55.651)" fill="#fff"/>
    <path id="Path_467" data-name="Path 467" d="M54.688,173.507a2.122,2.122,0,0,1-1.016-.231,1.641,1.641,0,0,1-.693-.786v-.03a2.168,2.168,0,0,1-.855.916,2.745,2.745,0,0,1-1.409.33,4.608,4.608,0,0,1-1.463-.246,5.46,5.46,0,0,1-1.525-.831,2.211,2.211,0,0,1-.408.485,1.435,1.435,0,0,1-.439.262,1.89,1.89,0,0,1-.477.107q-.247.022-.524.023h-.663a.545.545,0,0,1-.616-.618.721.721,0,0,1,.146-.525.668.668,0,0,1,.47-.139h.631a1.688,1.688,0,0,0,.386-.046,1.037,1.037,0,0,0,.4-.2,1.971,1.971,0,0,0,.392-.424,3.1,3.1,0,0,0,.362-.734,7.95,7.95,0,0,1,.747-1.6,3.941,3.941,0,0,1,.8-.942,2.167,2.167,0,0,1,.831-.441,3.428,3.428,0,0,1,.839-.108,2.571,2.571,0,0,1,1.078.224,2.507,2.507,0,0,1,.854.633,3.052,3.052,0,0,1,.57.973,3.613,3.613,0,0,1,.208,1.259c0,.072,0,.142-.008.208s-.008.132-.008.193a1.574,1.574,0,0,0,.454.75,1.424,1.424,0,0,0,.932.254.545.545,0,0,1,.616.618.721.721,0,0,1-.147.526.669.669,0,0,1-.469.138m-2.634-2.726a2.231,2.231,0,0,0-.1-.662,1.752,1.752,0,0,0-.293-.569,1.431,1.431,0,0,0-.47-.393,1.364,1.364,0,0,0-.647-.147,1.61,1.61,0,0,0-1.185.57,5.564,5.564,0,0,0-1.016,2,6.453,6.453,0,0,0,1.132.593,3.088,3.088,0,0,0,1.147.223,1.453,1.453,0,0,0,1.039-.369,1.658,1.658,0,0,0,.393-1.247" transform="translate(-15.54 -58.443)" fill="#fff"/>
    <path id="Path_468" data-name="Path 468" d="M59.775,170.715a.544.544,0,0,1-.616-.616.721.721,0,0,1,.146-.524.67.67,0,0,1,.47-.138h2.4v-9.718H63.44v11Z" transform="translate(-20.613 -55.651)" fill="#fff"/>
    <rect id="Rectangle_113" data-name="Rectangle 113" width="1.263" height="10.996" transform="translate(44.984 104.068)" fill="#fff"/>
    <path id="Path_469" data-name="Path 469" d="M82.107,169.7a4.05,4.05,0,0,1-.855-.108,2.82,2.82,0,0,1-.924-.391,2.392,2.392,0,0,1-.747-.8,2.583,2.583,0,0,1-.308-1.34,2.969,2.969,0,0,1,.292-1.387,2.708,2.708,0,0,1,.755-.912,2.95,2.95,0,0,1,1.024-.5,4.257,4.257,0,0,1,1.117-.153h2.449v4.4a1.567,1.567,0,0,0,.2.912c.133.179.431.267.893.267h.369a.548.548,0,0,1,.616.624.728.728,0,0,1-.146.529.658.658,0,0,1-.47.141h-.523a3.934,3.934,0,0,1-.762-.07,1.87,1.87,0,0,1-.647-.249,1.648,1.648,0,0,1-.485-.475,1.76,1.76,0,0,1-.262-.761,4.968,4.968,0,0,1-1.586.278m-1.6-2.75a1.391,1.391,0,0,0,.409,1.043,1.807,1.807,0,0,0,1.3.4,4.254,4.254,0,0,0,1.432-.276v-2.727H82.292a2.106,2.106,0,0,0-1.263.375,1.36,1.36,0,0,0-.524,1.187m.339-5.658a.815.815,0,1,1,.238.577.785.785,0,0,1-.238-.577m2,0a.815.815,0,1,1,.238.577.787.787,0,0,1-.238-.577" transform="translate(-27.621 -55.914)" fill="#fff"/>
    <path id="Path_470" data-name="Path 470" d="M89.839,175.912a.544.544,0,0,1-.616-.616.721.721,0,0,1,.147-.524.669.669,0,0,1,.47-.138h2.279a.544.544,0,0,1,.616.616.719.719,0,0,1-.146.523.667.667,0,0,1-.47.139Z" transform="translate(-31.088 -60.848)" fill="#fff"/>
    <path id="Path_471" data-name="Path 471" d="M93.337,175.912a.544.544,0,0,1-.616-.616.721.721,0,0,1,.146-.524.67.67,0,0,1,.47-.138h2.279a.544.544,0,0,1,.616.616.719.719,0,0,1-.146.523.667.667,0,0,1-.47.139Z" transform="translate(-32.307 -60.848)" fill="#fff"/>
    <path id="Path_472" data-name="Path 472" d="M96.835,175.912a.544.544,0,0,1-.616-.616.721.721,0,0,1,.146-.524.67.67,0,0,1,.47-.138h2.279a.544.544,0,0,1,.616.616.719.719,0,0,1-.146.523.667.667,0,0,1-.47.139Z" transform="translate(-33.526 -60.848)" fill="#fff"/>
    <path id="Path_473" data-name="Path 473" d="M100.333,173.425a.544.544,0,0,1-.616-.616.719.719,0,0,1,.146-.523.667.667,0,0,1,.47-.139h1.032a5.433,5.433,0,0,0,.631-.031,1,1,0,0,0,.439-.147.678.678,0,0,0,.262-.339,1.773,1.773,0,0,0,.084-.608V167.5h1.263v2.957a4.185,4.185,0,0,0,.054.7,1.271,1.271,0,0,0,.208.532,1.044,1.044,0,0,0,.416.338,1.548,1.548,0,0,0,.663.124.545.545,0,0,1,.616.616.715.715,0,0,1-.147.523.665.665,0,0,1-.469.139,1.539,1.539,0,0,1-.97-.285,1.352,1.352,0,0,1-.493-.715,1.38,1.38,0,0,1-.87.816,4.947,4.947,0,0,1-1.455.184Zm1.217,2.326a.815.815,0,1,1,.238.577.785.785,0,0,1-.238-.577m2,0a.815.815,0,1,1,.238.577.787.787,0,0,1-.238-.577" transform="translate(-34.744 -58.361)" fill="#fff"/>
    <path id="Path_474" data-name="Path 474" d="M117.534,173.507a2.122,2.122,0,0,1-1.016-.231,1.641,1.641,0,0,1-.693-.786v-.03a2.168,2.168,0,0,1-.855.916,2.745,2.745,0,0,1-1.409.33,4.608,4.608,0,0,1-1.463-.246,5.459,5.459,0,0,1-1.525-.831,2.211,2.211,0,0,1-.408.485,1.435,1.435,0,0,1-.439.262,1.89,1.89,0,0,1-.477.107q-.247.022-.524.023h-.663a.545.545,0,0,1-.616-.618.721.721,0,0,1,.146-.525.668.668,0,0,1,.47-.139h.631a1.688,1.688,0,0,0,.386-.046,1.037,1.037,0,0,0,.4-.2,1.971,1.971,0,0,0,.392-.424,3.1,3.1,0,0,0,.362-.734,7.949,7.949,0,0,1,.747-1.6,3.941,3.941,0,0,1,.8-.942,2.167,2.167,0,0,1,.831-.441,3.428,3.428,0,0,1,.839-.108,2.571,2.571,0,0,1,1.078.224,2.507,2.507,0,0,1,.854.633,3.052,3.052,0,0,1,.57.973,3.613,3.613,0,0,1,.208,1.259c0,.072,0,.142-.008.208s-.008.132-.008.193a1.574,1.574,0,0,0,.454.75,1.424,1.424,0,0,0,.932.254.545.545,0,0,1,.616.618.721.721,0,0,1-.147.526.669.669,0,0,1-.469.138m-2.634-2.726a2.231,2.231,0,0,0-.1-.662,1.752,1.752,0,0,0-.293-.569,1.431,1.431,0,0,0-.47-.393,1.364,1.364,0,0,0-.647-.147,1.61,1.61,0,0,0-1.185.57,5.564,5.564,0,0,0-1.016,2,6.454,6.454,0,0,0,1.132.593,3.088,3.088,0,0,0,1.147.223,1.453,1.453,0,0,0,1.039-.369,1.658,1.658,0,0,0,.393-1.247" transform="translate(-37.437 -58.443)" fill="#fff"/>
    <path id="Path_475" data-name="Path 475" d="M122.621,175.912A.544.544,0,0,1,122,175.3a.721.721,0,0,1,.146-.524.67.67,0,0,1,.47-.138H124.9a.544.544,0,0,1,.616.616.719.719,0,0,1-.146.523.667.667,0,0,1-.47.139Z" transform="translate(-42.51 -60.848)" fill="#fff"/>
    <path id="Path_476" data-name="Path 476" d="M126.119,175.912a.544.544,0,0,1-.616-.616.721.721,0,0,1,.146-.524.67.67,0,0,1,.47-.138H128.4a.544.544,0,0,1,.616.616.719.719,0,0,1-.146.523.667.667,0,0,1-.47.139Z" transform="translate(-43.729 -60.848)" fill="#fff"/>
    <path id="Path_477" data-name="Path 477" d="M129.617,173.425a.544.544,0,0,1-.616-.616.716.716,0,0,1,.147-.523.666.666,0,0,1,.47-.139h2.4V167.5h1.263v5.929Zm.616,2.326a.815.815,0,1,1,.238.577.787.787,0,0,1-.238-.577m2,0a.815.815,0,1,1,.238.577.787.787,0,0,1-.238-.577" transform="translate(-44.948 -58.361)" fill="#fff"/>
    <path id="Path_478" data-name="Path 478" d="M143.6,171.541a1.6,1.6,0,0,1-.508,1.216,2.083,2.083,0,0,1-1.479.478h-3.681v-1.278h3.573q.523,0,.662-.162a.54.54,0,0,0,.139-.362.95.95,0,0,0-.062-.324,3.2,3.2,0,0,0-.3-.539q-.239-.368-.693-1.046t-1.24-1.833l1.186-.74q.616,1.062,1.07,1.787t.747,1.231a7.567,7.567,0,0,1,.439.87,1.876,1.876,0,0,1,.146.7" transform="translate(-48.061 -58.171)" fill="#fff"/>
    <path id="Path_479" data-name="Path 479" d="M152.664,170.053a.718.718,0,0,1-.146.523.668.668,0,0,1-.47.139h-.4a3.762,3.762,0,0,1-.9-.1,1.558,1.558,0,0,1-1.139-1,2.789,2.789,0,0,1-.162-1.024v-8.87h1.263v8.532a1.585,1.585,0,0,0,.2.917c.134.179.432.269.893.269h.247a.544.544,0,0,1,.616.616" transform="translate(-52.071 -55.651)" fill="#fff"/>
    <path id="Path_480" data-name="Path 480" d="M153.111,171.324a.544.544,0,0,1-.616-.616.721.721,0,0,1,.146-.524.67.67,0,0,1,.47-.138h3.681a2,2,0,0,0,.947-.2.787.787,0,0,0,.377-.77,1.62,1.62,0,0,0-.377-.916,6.265,6.265,0,0,0-1-1.047,13.48,13.48,0,0,0-1.425-1.048,15.6,15.6,0,0,0-1.663-.932,1.3,1.3,0,0,1,.093-.377,2.89,2.89,0,0,1,.169-.354,2.194,2.194,0,0,1,.192-.285,1.024,1.024,0,0,1,.162-.169l5.636-2.48v1.248l-4.528,2a15.819,15.819,0,0,1,1.833,1.231,9.181,9.181,0,0,1,1.232,1.156,3.941,3.941,0,0,1,.685,1.07,2.631,2.631,0,0,1,.208.979,2.814,2.814,0,0,1-.1.708,1.763,1.763,0,0,1-.377.708,2.071,2.071,0,0,1-.786.538,3.348,3.348,0,0,1-1.308.216Z" transform="translate(-53.134 -56.26)" fill="#fff"/>
    <path id="Path_481" data-name="Path 481" d="M174.478,159.521v11h-8.747v-1.278H169.2v-5.867h1.263v5.867h2.757v-9.718ZM171,162H168.18v-.693h.693a1.48,1.48,0,0,1-.216-.786,1.514,1.514,0,0,1,.108-.593,1.2,1.2,0,0,1,.293-.424,1.368,1.368,0,0,1,.908-.354,2.958,2.958,0,0,1,.454.03.6.6,0,0,1,.285.109V160a1.6,1.6,0,0,0-.663-.139.644.644,0,0,0-.539.216.754.754,0,0,0-.169.477.729.729,0,0,0,.8.755H171Z" transform="translate(-57.746 -55.453)" fill="#fff"/>
    <rect id="Rectangle_114" data-name="Rectangle 114" width="1.263" height="10.996" transform="translate(118.888 104.068)" fill="#fff"/>
    <path id="Path_482" data-name="Path 482" d="M3.665,189.347H.924v-.921H7.5v.921H4.759v7.3H3.665Z" transform="translate(-0.322 -65.653)" fill="#fff"/>
    <path id="Path_483" data-name="Path 483" d="M12.165,188.425h.979v3.144h.023a1.324,1.324,0,0,1,.328-.46,1.906,1.906,0,0,1,.466-.318,2.341,2.341,0,0,1,.536-.178,2.785,2.785,0,0,1,.547-.058,2.582,2.582,0,0,1,.979.162,1.608,1.608,0,0,1,.633.45,1.666,1.666,0,0,1,.34.685,3.7,3.7,0,0,1,.1.882v3.915h-.979v-4.031a1.182,1.182,0,0,0-.323-.875,1.2,1.2,0,0,0-.886-.323,1.984,1.984,0,0,0-.777.139,1.449,1.449,0,0,0-.547.391,1.69,1.69,0,0,0-.328.594,2.391,2.391,0,0,0-.109.743v3.363h-.979Z" transform="translate(-4.239 -65.653)" fill="#fff"/>
    <path id="Path_484" data-name="Path 484" d="M26.9,195.9a2.421,2.421,0,0,1-.863,1.509,2.659,2.659,0,0,1-1.681.519,3.011,3.011,0,0,1-1.239-.236,2.506,2.506,0,0,1-.881-.652,2.746,2.746,0,0,1-.536-.99,4.768,4.768,0,0,1-.2-1.255,3.6,3.6,0,0,1,.207-1.238,2.953,2.953,0,0,1,.582-.985,2.632,2.632,0,0,1,.887-.645A2.7,2.7,0,0,1,24.3,191.7a2.443,2.443,0,0,1,1.319.328,2.611,2.611,0,0,1,.841.835,3.3,3.3,0,0,1,.437,1.106,4.744,4.744,0,0,1,.1,1.14H22.533a2.386,2.386,0,0,0,.093.743,1.681,1.681,0,0,0,.334.622,1.651,1.651,0,0,0,.587.431,2.015,2.015,0,0,0,.841.162,1.7,1.7,0,0,0,1.014-.289,1.381,1.381,0,0,0,.53-.875Zm-.944-1.658a2.017,2.017,0,0,0-.155-.657,1.678,1.678,0,0,0-1.561-1.025,1.71,1.71,0,0,0-.685.132,1.583,1.583,0,0,0-.525.363,1.741,1.741,0,0,0-.345.536,2.039,2.039,0,0,0-.151.651Z" transform="translate(-7.49 -66.792)" fill="#fff"/>
    <path id="Path_485" data-name="Path 485" d="M36.645,188.425h5.4v.921H37.739v2.614h3.777v.921H37.739v3.766H36.645Z" transform="translate(-12.768 -65.653)" fill="#fff"/>
    <path id="Path_486" data-name="Path 486" d="M47.609,189.623H46.63v-1.2h.979Zm-.979,1.071h.979v5.954H46.63Z" transform="translate(-16.247 -65.653)" fill="#fff"/>
    <path id="Path_487" data-name="Path 487" d="M50.465,191.833h.921v.944h.023a2.039,2.039,0,0,1,.8-.818,2.347,2.347,0,0,1,1.134-.265,2.582,2.582,0,0,1,.979.162,1.609,1.609,0,0,1,.633.45,1.666,1.666,0,0,1,.34.685,3.7,3.7,0,0,1,.1.882v3.915h-.979v-4.031a1.182,1.182,0,0,0-.323-.875,1.2,1.2,0,0,0-.886-.323,1.984,1.984,0,0,0-.777.139,1.449,1.449,0,0,0-.547.391,1.7,1.7,0,0,0-.328.594,2.391,2.391,0,0,0-.109.743v3.363h-.979Z" transform="translate(-17.584 -66.792)" fill="#fff"/>
    <path id="Path_488" data-name="Path 488" d="M65.394,197.763a1.338,1.338,0,0,1-.7.162.827.827,0,0,1-.6-.219.945.945,0,0,1-.225-.7,2.39,2.39,0,0,1-.939.7,3.025,3.025,0,0,1-1.158.219,3.1,3.1,0,0,1-.765-.093,1.731,1.731,0,0,1-.628-.293,1.433,1.433,0,0,1-.42-.519,1.712,1.712,0,0,1-.155-.766,1.755,1.755,0,0,1,.173-.829,1.448,1.448,0,0,1,.455-.519,2.267,2.267,0,0,1,.644-.3,6.743,6.743,0,0,1,.743-.179c.27-.053.524-.093.766-.121a4.226,4.226,0,0,0,.64-.115,1.061,1.061,0,0,0,.437-.219.534.534,0,0,0,.162-.42.974.974,0,0,0-.121-.518.825.825,0,0,0-.311-.3,1.251,1.251,0,0,0-.426-.137,3.148,3.148,0,0,0-.467-.035,2.085,2.085,0,0,0-1.037.236,1,1,0,0,0-.449.893h-.978a2.09,2.09,0,0,1,.23-.932,1.734,1.734,0,0,1,.553-.616,2.287,2.287,0,0,1,.794-.339,4.188,4.188,0,0,1,.944-.1,5.664,5.664,0,0,1,.8.058,2.066,2.066,0,0,1,.719.237,1.375,1.375,0,0,1,.519.5,1.6,1.6,0,0,1,.2.841v3.064a2.306,2.306,0,0,0,.04.506c.027.108.117.162.271.162a.892.892,0,0,0,.3-.057Zm-1.589-3.051a1.045,1.045,0,0,1-.346.161c-.138.038-.284.071-.438.1s-.317.05-.489.07-.339.044-.5.075a4.213,4.213,0,0,0-.461.115,1.237,1.237,0,0,0-.38.191.9.9,0,0,0-.259.3.971.971,0,0,0-.1.461.793.793,0,0,0,.1.409.812.812,0,0,0,.253.27,1.028,1.028,0,0,0,.363.15,1.967,1.967,0,0,0,.437.046,2.324,2.324,0,0,0,.829-.132,1.768,1.768,0,0,0,.564-.334,1.313,1.313,0,0,0,.323-.439,1.093,1.093,0,0,0,.1-.443Z" transform="translate(-20.835 -66.792)" fill="#fff"/>
    <path id="Path_489" data-name="Path 489" d="M69.783,191.833H70.7v.944h.023a2.039,2.039,0,0,1,.8-.818,2.347,2.347,0,0,1,1.134-.265,2.582,2.582,0,0,1,.979.162,1.609,1.609,0,0,1,.633.45,1.665,1.665,0,0,1,.34.685,3.7,3.7,0,0,1,.1.882v3.915h-.979v-4.031a1.182,1.182,0,0,0-.323-.875,1.2,1.2,0,0,0-.886-.323,1.984,1.984,0,0,0-.777.139,1.449,1.449,0,0,0-.547.391,1.7,1.7,0,0,0-.328.594,2.39,2.39,0,0,0-.109.743v3.363h-.979Z" transform="translate(-24.315 -66.792)" fill="#fff"/>
    <path id="Path_490" data-name="Path 490" d="M83.481,193.745a1.382,1.382,0,0,0-1.475-1.187,1.821,1.821,0,0,0-.887.2,1.58,1.58,0,0,0-.57.518,2.177,2.177,0,0,0-.3.743,4.016,4.016,0,0,0-.093.87,3.318,3.318,0,0,0,.1.806,2.145,2.145,0,0,0,.3.7,1.558,1.558,0,0,0,.536.489,1.836,1.836,0,0,0,1.929-.2,1.713,1.713,0,0,0,.506-1.065h1a2.769,2.769,0,0,1-.829,1.7,2.561,2.561,0,0,1-1.8.611,3.031,3.031,0,0,1-1.2-.225,2.387,2.387,0,0,1-.875-.628,2.682,2.682,0,0,1-.53-.962,4,4,0,0,1-.179-1.226,4.363,4.363,0,0,1,.173-1.25,2.905,2.905,0,0,1,.524-1.014,2.473,2.473,0,0,1,.875-.679,2.879,2.879,0,0,1,1.239-.248,3.62,3.62,0,0,1,.95.121,2.383,2.383,0,0,1,.788.374,1.98,1.98,0,0,1,.559.639,2.423,2.423,0,0,1,.27.916Z" transform="translate(-27.566 -66.792)" fill="#fff"/>
    <path id="Path_491" data-name="Path 491" d="M90.169,189.623H89.19v-1.2h.979Zm-.979,1.071h.979v5.954H89.19Z" transform="translate(-31.076 -65.653)" fill="#fff"/>
    <path id="Path_492" data-name="Path 492" d="M98.127,197.763a1.339,1.339,0,0,1-.7.162.829.829,0,0,1-.6-.219.948.948,0,0,1-.224-.7,2.4,2.4,0,0,1-.939.7,3.03,3.03,0,0,1-1.158.219,3.108,3.108,0,0,1-.766-.093,1.733,1.733,0,0,1-.627-.293,1.433,1.433,0,0,1-.42-.519,1.712,1.712,0,0,1-.156-.766,1.755,1.755,0,0,1,.173-.829,1.46,1.46,0,0,1,.455-.519,2.271,2.271,0,0,1,.644-.3,6.707,6.707,0,0,1,.743-.179c.269-.053.524-.093.766-.121a4.217,4.217,0,0,0,.639-.115,1.06,1.06,0,0,0,.437-.219.534.534,0,0,0,.162-.42.974.974,0,0,0-.121-.518.83.83,0,0,0-.311-.3,1.251,1.251,0,0,0-.426-.137,3.155,3.155,0,0,0-.467-.035,2.084,2.084,0,0,0-1.037.236,1,1,0,0,0-.449.893h-.979a2.108,2.108,0,0,1,.23-.932,1.741,1.741,0,0,1,.553-.616,2.29,2.29,0,0,1,.794-.339,4.188,4.188,0,0,1,.944-.1,5.665,5.665,0,0,1,.8.058,2.071,2.071,0,0,1,.719.237,1.379,1.379,0,0,1,.519.5,1.6,1.6,0,0,1,.2.841v3.064a2.306,2.306,0,0,0,.04.506c.027.108.117.162.271.162a.892.892,0,0,0,.3-.057Zm-1.589-3.051a1.041,1.041,0,0,1-.345.161c-.138.038-.284.071-.438.1s-.317.05-.489.07-.339.044-.5.075a4.289,4.289,0,0,0-.461.115,1.245,1.245,0,0,0-.38.191.9.9,0,0,0-.259.3.979.979,0,0,0-.1.461.8.8,0,0,0,.1.409.812.812,0,0,0,.253.27,1.038,1.038,0,0,0,.363.15,1.977,1.977,0,0,0,.437.046,2.329,2.329,0,0,0,.829-.132,1.768,1.768,0,0,0,.564-.334,1.322,1.322,0,0,0,.323-.439,1.1,1.1,0,0,0,.1-.443Z" transform="translate(-32.24 -66.792)" fill="#fff"/>
    <rect id="Rectangle_115" data-name="Rectangle 115" width="0.979" height="8.223" transform="translate(66.854 122.772)" fill="#fff"/>
    <path id="Path_493" data-name="Path 493" d="M113.312,188.425h1.21l3.212,8.222h-1.209l-.9-2.475H112.15l-.921,2.475H110.1Zm-.817,4.826h2.787l-1.37-3.835h-.023Z" transform="translate(-38.362 -65.653)" fill="#fff"/>
    <path id="Path_494" data-name="Path 494" d="M126.676,193.745a1.382,1.382,0,0,0-1.474-1.187,1.821,1.821,0,0,0-.887.2,1.58,1.58,0,0,0-.57.518,2.177,2.177,0,0,0-.3.743,4.017,4.017,0,0,0-.093.87,3.318,3.318,0,0,0,.1.806,2.132,2.132,0,0,0,.306.7,1.55,1.55,0,0,0,.535.489,1.836,1.836,0,0,0,1.929-.2,1.713,1.713,0,0,0,.506-1.065h1a2.769,2.769,0,0,1-.829,1.7,2.561,2.561,0,0,1-1.8.611,3.031,3.031,0,0,1-1.2-.225,2.387,2.387,0,0,1-.875-.628,2.682,2.682,0,0,1-.53-.962,4,4,0,0,1-.179-1.226,4.363,4.363,0,0,1,.173-1.25,2.905,2.905,0,0,1,.524-1.014,2.473,2.473,0,0,1,.875-.679,2.879,2.879,0,0,1,1.239-.248,3.62,3.62,0,0,1,.95.121,2.383,2.383,0,0,1,.788.374,1.98,1.98,0,0,1,.559.639,2.423,2.423,0,0,1,.27.916Z" transform="translate(-42.617 -66.792)" fill="#fff"/>
    <path id="Path_495" data-name="Path 495" d="M137.4,197.763a1.339,1.339,0,0,1-.7.162.829.829,0,0,1-.6-.219.948.948,0,0,1-.224-.7,2.4,2.4,0,0,1-.939.7,3.03,3.03,0,0,1-1.158.219,3.108,3.108,0,0,1-.766-.093,1.733,1.733,0,0,1-.627-.293,1.433,1.433,0,0,1-.42-.519,1.712,1.712,0,0,1-.156-.766,1.755,1.755,0,0,1,.173-.829,1.46,1.46,0,0,1,.455-.519,2.271,2.271,0,0,1,.644-.3,6.707,6.707,0,0,1,.743-.179c.269-.053.524-.093.766-.121a4.217,4.217,0,0,0,.639-.115,1.06,1.06,0,0,0,.437-.219.534.534,0,0,0,.162-.42.974.974,0,0,0-.121-.518.83.83,0,0,0-.311-.3,1.251,1.251,0,0,0-.426-.137,3.155,3.155,0,0,0-.467-.035,2.084,2.084,0,0,0-1.037.236,1,1,0,0,0-.449.893h-.979a2.108,2.108,0,0,1,.23-.932,1.741,1.741,0,0,1,.553-.616,2.291,2.291,0,0,1,.794-.339,4.188,4.188,0,0,1,.944-.1,5.665,5.665,0,0,1,.8.058,2.071,2.071,0,0,1,.719.237,1.379,1.379,0,0,1,.519.5,1.6,1.6,0,0,1,.2.841v3.064a2.307,2.307,0,0,0,.04.506c.027.108.117.162.271.162a.892.892,0,0,0,.3-.057Zm-1.589-3.051a1.041,1.041,0,0,1-.345.161c-.138.038-.284.071-.438.1s-.317.05-.489.07-.339.044-.5.075a4.289,4.289,0,0,0-.461.115,1.245,1.245,0,0,0-.38.191.9.9,0,0,0-.259.3.979.979,0,0,0-.1.461.8.8,0,0,0,.1.409.812.812,0,0,0,.253.27,1.038,1.038,0,0,0,.363.15,1.977,1.977,0,0,0,.437.046,2.329,2.329,0,0,0,.829-.132,1.768,1.768,0,0,0,.564-.334,1.322,1.322,0,0,0,.323-.439,1.1,1.1,0,0,0,.1-.443Z" transform="translate(-45.924 -66.792)" fill="#fff"/>
    <path id="Path_496" data-name="Path 496" d="M146.936,196.648h-.979v-.806h-.023a1.467,1.467,0,0,1-.76.719,2.833,2.833,0,0,1-1.14.225,2.689,2.689,0,0,1-1.2-.255,2.442,2.442,0,0,1-.852-.685,3.012,3.012,0,0,1-.512-1,4.066,4.066,0,0,1-.173-1.2,4.147,4.147,0,0,1,.167-1.193,2.9,2.9,0,0,1,.506-.985,2.422,2.422,0,0,1,.853-.673,2.712,2.712,0,0,1,1.192-.248,2.987,2.987,0,0,1,.5.046,2.588,2.588,0,0,1,.53.156,2.26,2.26,0,0,1,.5.289,1.568,1.568,0,0,1,.4.443h.023v-3.064h.979Zm-4.607-2.925a3.045,3.045,0,0,0,.109.812,2.205,2.205,0,0,0,.334.708,1.634,1.634,0,0,0,.575.495,1.747,1.747,0,0,0,.824.184,1.612,1.612,0,0,0,1.4-.708,2.14,2.14,0,0,0,.317-.719,3.5,3.5,0,0,0,.1-.818,3.439,3.439,0,0,0-.1-.847,2.09,2.09,0,0,0-.328-.719,1.667,1.667,0,0,0-.582-.5,1.811,1.811,0,0,0-.863-.19,1.667,1.667,0,0,0-.846.2,1.571,1.571,0,0,0-.547.519,2.248,2.248,0,0,0-.3.736,3.887,3.887,0,0,0-.093.853" transform="translate(-49.231 -65.653)" fill="#fff"/>
    <path id="Path_497" data-name="Path 497" d="M157.176,195.9a2.421,2.421,0,0,1-.863,1.509,2.659,2.659,0,0,1-1.681.519,3.011,3.011,0,0,1-1.239-.236,2.506,2.506,0,0,1-.881-.652,2.746,2.746,0,0,1-.536-.99,4.768,4.768,0,0,1-.2-1.255,3.6,3.6,0,0,1,.207-1.238,2.953,2.953,0,0,1,.582-.985,2.631,2.631,0,0,1,.887-.645,2.7,2.7,0,0,1,1.123-.231,2.443,2.443,0,0,1,1.319.328,2.611,2.611,0,0,1,.841.835,3.3,3.3,0,0,1,.437,1.106,4.743,4.743,0,0,1,.1,1.14h-4.457a2.386,2.386,0,0,0,.093.743,1.681,1.681,0,0,0,.334.622,1.651,1.651,0,0,0,.587.431,2.015,2.015,0,0,0,.841.162,1.7,1.7,0,0,0,1.014-.289,1.381,1.381,0,0,0,.53-.875Zm-.944-1.658a2.018,2.018,0,0,0-.155-.657,1.678,1.678,0,0,0-1.561-1.025,1.71,1.71,0,0,0-.685.132,1.573,1.573,0,0,0-.524.363,1.731,1.731,0,0,0-.345.536,2.039,2.039,0,0,0-.15.651Z" transform="translate(-52.883 -66.792)" fill="#fff"/>
    <path id="Path_498" data-name="Path 498" d="M161.761,191.833h.921v.875h.023a2.318,2.318,0,0,1,2.926-.783,1.291,1.291,0,0,1,.633.783,2.072,2.072,0,0,1,.794-.749,2.238,2.238,0,0,1,1.071-.265,3.13,3.13,0,0,1,.813.1,1.688,1.688,0,0,1,.622.306,1.376,1.376,0,0,1,.4.536,1.945,1.945,0,0,1,.144.788v4.365h-.979v-3.9a2.782,2.782,0,0,0-.046-.519,1.069,1.069,0,0,0-.173-.42.871.871,0,0,0-.351-.282,1.407,1.407,0,0,0-.582-.1,1.546,1.546,0,0,0-1.134.415,1.482,1.482,0,0,0-.42,1.105v3.709h-.979v-3.9a2.527,2.527,0,0,0-.051-.53,1.14,1.14,0,0,0-.179-.42.832.832,0,0,0-.346-.276,1.327,1.327,0,0,0-.541-.1,1.445,1.445,0,0,0-.737.173,1.685,1.685,0,0,0-.489.414,1.658,1.658,0,0,0-.276.5,1.436,1.436,0,0,0-.086.432v3.709h-.979Z" transform="translate(-56.362 -66.792)" fill="#fff"/>
    <path id="Path_499" data-name="Path 499" d="M178.831,198.656a6.3,6.3,0,0,1-.339.736,2.106,2.106,0,0,1-.364.491,1.2,1.2,0,0,1-.449.276,1.784,1.784,0,0,1-.575.086,2.683,2.683,0,0,1-.346-.023,1.729,1.729,0,0,1-.334-.08v-.9c.092.031.186.062.282.092a.939.939,0,0,0,.294.046.788.788,0,0,0,.483-.138,1.168,1.168,0,0,0,.323-.4l.4-1.013-2.361-5.92h1.106l1.739,4.872h.023l1.67-4.872h1.037Z" transform="translate(-61.271 -66.866)" fill="#fff"/>
  </g>
</svg>
